<?xml version="1.0" standalone="no"?>
<!DOCTYPE svg PUBLIC "-//W3C//DTD SVG 20010904//EN"
 "http://www.w3.org/TR/2001/REC-SVG-20010904/DTD/svg10.dtd">
<svg version="1.0" xmlns="http://www.w3.org/2000/svg"
 width="512.000000pt" height="512.000000pt" viewBox="0 0 512.000000 512.000000"
 preserveAspectRatio="xMidYMid meet">
<metadata>
Created by potrace 1.14, written by Peter Selinger 2001-2017
</metadata>
<g transform="translate(0.000000,512.000000) scale(0.100000,-0.100000)"
fill="#000000" stroke="none">
<path d="M3250 5113 c-55 -9 -171 -44 -227 -69 -120 -55 -182 -109 -555 -481
l-373 -373 -135 0 c-160 -1 -193 -4 -285 -31 -272 -81 -513 -354 -640 -728
-32 -94 -71 -255 -81 -336 -3 -22 -8 -51 -11 -65 -12 -57 -10 -380 3 -480 19
-157 62 -340 98 -425 42 -98 42 -93 6 -130 -40 -41 -134 -93 -204 -111 -37
-10 -128 -14 -342 -14 -321 0 -360 -5 -426 -60 -52 -43 -78 -103 -78 -178 0
-101 40 -169 125 -215 38 -21 57 -22 340 -27 l300 -5 46 -27 c62 -37 99 -95
111 -177 20 -133 58 -194 143 -232 33 -15 66 -19 191 -19 170 0 228 -12 286
-60 105 -87 105 -251 -1 -341 -45 -39 -97 -59 -157 -59 -44 0 -117 -31 -153
-63 -59 -54 -85 -162 -60 -250 13 -49 73 -115 124 -138 38 -18 117 -19 1741
-19 1862 0 1748 -4 1853 57 150 87 231 232 231 412 0 186 -98 341 -265 421
-78 37 -163 49 -351 50 -128 0 -145 2 -185 23 -158 83 -163 305 -10 395 l46
27 300 5 c283 5 302 6 340 27 85 46 125 114 125 215 0 113 -62 194 -172 225
l-57 16 38 76 c57 113 119 279 135 366 4 17 9 41 11 55 21 100 27 134 33 200
11 118 7 428 -7 505 -6 39 -14 84 -17 100 -3 17 -7 37 -9 45 -2 8 -7 29 -9 45
-3 17 -21 78 -41 137 -116 353 -321 616 -571 729 -71 32 -175 59 -234 59 l-35
0 2 97 c9 462 -364 834 -832 830 -44 0 -91 -2 -105 -4z m285 -354 c155 -57
272 -188 309 -346 12 -53 15 -208 3 -219 -2 -2 -291 -3 -643 -2 l-638 3 232
232 c248 247 283 278 350 312 111 56 269 65 387 20z"/>
</g>
</svg>
